<svg width="133" height="56" viewBox="0 0 133 56" fill="none" xmlns="http://www.w3.org/2000/svg">
<path d="M36.8145 47.0167C36.8145 47.0167 39.3222 41.8295 44.9388 44.1139C44.9559 44.1139 42.5856 49.4557 36.8145 47.0167Z" fill="#F2865B"/>
<path d="M37.5037 32.2456C37.5037 33.4994 37.1258 34.5472 36.3701 35.3888C35.6143 36.2304 34.6525 36.8659 33.4673 37.2782C32.2822 37.7076 31.0455 37.9137 29.7401 37.9137H18.3008V36.6942C19.5546 36.6942 20.3619 36.4881 20.7054 36.0587C21.0661 35.6293 21.2379 34.8907 21.2379 33.8258V21.2528C21.2379 20.1879 21.0661 19.4321 20.7054 19.0027C20.3447 18.5733 19.5375 18.3672 18.3008 18.3672V17.1477H29.8775C31.4577 17.1477 32.7287 17.4054 33.7078 17.9206C34.6868 18.4359 35.3911 19.0714 35.8376 19.81C36.2842 20.5486 36.5075 21.27 36.5075 21.9742C36.5075 22.6784 36.4044 23.3311 36.1983 23.9323C35.9922 24.5335 35.5285 25.0831 34.8414 25.5812C34.1372 26.0621 33.0551 26.4915 31.6123 26.8522C33.7078 27.2645 35.2021 27.9343 36.1296 28.8275C37.04 29.755 37.5037 30.8886 37.5037 32.2456ZM31.389 22.4036C31.389 21.27 31.0798 20.4112 30.4615 19.8444C29.8432 19.2776 28.7095 19.0027 27.0606 19.0027C26.8373 19.0027 26.6484 19.0199 26.4938 19.0371C26.3392 19.0543 26.2018 19.0886 26.0816 19.1058V26.2339C26.1503 26.2339 26.2705 26.2339 26.4595 26.2511C26.6484 26.2682 26.8373 26.2683 27.0606 26.2683C28.5206 26.2683 29.6199 25.9247 30.3241 25.2205C31.0283 24.4991 31.389 23.5716 31.389 22.4036ZM32.0932 32.4001C32.0932 30.8371 31.6466 29.6863 30.7707 28.9821C29.8775 28.2779 28.6408 27.9172 27.0606 27.9172C26.5969 27.9172 26.2705 27.9343 26.0816 27.9687V34.2895C26.0816 35.0281 26.219 35.509 26.4938 35.7495C26.7686 35.9899 27.198 36.1102 27.7477 36.1102C28.3832 36.1102 29.0531 36.0243 29.7229 35.8354C30.3928 35.6464 30.9596 35.2857 31.4234 34.7533C31.8699 34.2208 32.0932 33.4479 32.0932 32.4001Z" fill="#4378C7"/>
<path d="M51.0549 32.3483L51.9481 32.7433C51.7591 33.688 51.4156 34.5812 50.9175 35.4572C50.4194 36.3331 49.7667 37.0374 48.9594 37.587C48.1521 38.1366 47.1559 38.4114 45.9536 38.4114C43.944 38.4114 42.3981 37.7244 41.2817 36.3331C40.1652 34.9419 39.6328 33.1384 39.6328 30.9055C39.6328 29.3768 39.9763 28.0714 40.6461 26.955C41.316 25.8385 42.192 24.9797 43.2226 24.3785C44.2703 23.7774 45.3352 23.4682 46.4517 23.4682C47.4307 23.4682 48.3411 23.6743 49.1655 24.0694C49.99 24.4816 50.6598 25.1343 51.1751 26.0274C51.6904 26.9378 51.9309 28.1229 51.9137 29.6173H43.1367C43.1367 30.4932 43.3256 31.3521 43.6863 32.1937C44.047 33.0353 44.5795 33.7395 45.2665 34.2892C45.9536 34.8388 46.778 35.1136 47.7571 35.1136C48.4269 35.1136 49.0281 34.9075 49.5777 34.5125C50.1446 34.1002 50.6255 33.3788 51.0549 32.3483ZM43.1539 28.3119H47.843C47.843 27.8996 47.7742 27.4187 47.6197 26.9034C47.4651 26.3881 47.2074 25.9416 46.8467 25.5637C46.486 25.1858 45.9879 24.9969 45.3352 24.9969C44.7856 24.9969 44.2703 25.306 43.8237 25.9072C43.36 26.4912 43.1367 27.2985 43.1539 28.3119Z" fill="#4378C7"/>
<path d="M62.6483 37.9306H54.8503V36.7111C55.5889 36.7111 56.0526 36.5565 56.2759 36.2646C56.482 35.9726 56.6023 35.3886 56.6023 34.5469V20.8575C56.6023 20.0503 56.5336 19.5178 56.379 19.2258C56.2244 18.9338 56.0011 18.7964 55.6919 18.7964C55.503 18.7964 55.3312 18.8136 55.1423 18.8651C54.9534 18.9166 54.7816 18.9682 54.6098 19.0197L54.1289 17.9548L59.7455 16.1685H60.965V34.5469C60.965 35.4744 61.0853 36.0584 61.3257 36.3333C61.5662 36.5909 61.9956 36.7283 62.6483 36.7283V37.9306Z" fill="#4378C7"/>
<path d="M73.1088 37.9306H65.3108V36.7111C66.0494 36.7111 66.5131 36.5737 66.7192 36.2989C66.9253 36.0241 67.0284 35.4401 67.0284 34.5469V28.1746C67.0284 27.3673 66.9769 26.8177 66.8566 26.5257C66.7364 26.2509 66.5131 26.0963 66.1868 26.0963C65.7917 26.0963 65.3451 26.165 64.8642 26.3196L64.4863 25.1859L70.1716 23.4683H71.3911V34.5469C71.3911 35.4401 71.5114 36.0241 71.7518 36.2989C71.9923 36.5737 72.4389 36.7111 73.0916 36.7111V37.9306H73.1088ZM71.666 18.3327C71.666 19.0369 71.4255 19.638 70.9446 20.1362C70.4636 20.6343 69.8796 20.8919 69.1754 20.8919C68.4884 20.8919 67.8872 20.6514 67.3891 20.1705C66.891 19.6896 66.6333 19.0712 66.6333 18.3327C66.6333 17.6284 66.891 17.0273 67.3891 16.5635C67.8872 16.0998 68.4884 15.8765 69.1754 15.8765C69.8453 15.8765 70.4293 16.1169 70.9274 16.5979C71.4255 17.096 71.666 17.6628 71.666 18.3327Z" fill="#4378C7"/>
<path d="M100.284 37.9306H92.6407V36.7111C93.2934 36.7111 93.7399 36.608 93.9804 36.3847C94.2209 36.1614 94.3411 35.5603 94.3411 34.5469V29.0333C94.3411 28.0199 94.2037 27.2814 93.946 26.852C93.6884 26.4054 93.2247 26.1993 92.6063 26.1993C91.6616 26.1993 90.6998 26.7317 89.7207 27.7967V34.5812C89.7207 35.4916 89.8238 36.0756 90.0471 36.3332C90.2704 36.5908 90.6826 36.7283 91.3009 36.7283V37.9478H83.6575V36.7283C84.3102 36.7283 84.7568 36.6252 84.9801 36.4019C85.2034 36.1786 85.3236 35.5775 85.3236 34.5641V29.0333C85.3236 28.0371 85.1862 27.2986 84.9286 26.8691C84.6709 26.4226 84.2244 26.2164 83.5717 26.2164C82.627 26.2164 81.6823 26.7489 80.7032 27.8138V34.5297C80.7032 35.4229 80.8235 36.0069 81.0468 36.2817C81.2701 36.5565 81.7166 36.6939 82.3521 36.6939V37.9134H74.5885V36.6939C75.2928 36.6939 75.7565 36.5565 75.9798 36.2817C76.2031 36.0069 76.3061 35.4229 76.3061 34.5297V28.1745C76.3061 27.3673 76.2546 26.8176 76.1344 26.5256C76.0142 26.2508 75.7909 26.0962 75.4645 26.0962C75.2756 26.0962 75.0523 26.1134 74.7946 26.1649C74.5198 26.2164 74.3137 26.268 74.1591 26.3195L73.7812 25.1859L79.4666 23.4683H80.6861V26.0275C81.2701 25.6153 81.8197 25.2202 82.3006 24.8252C82.7987 24.4301 83.314 24.1038 83.8808 23.8461C84.4476 23.5885 85.1003 23.4683 85.8904 23.4683C86.9038 23.4683 87.6596 23.7259 88.192 24.2412C88.7245 24.7565 89.1024 25.4263 89.36 26.2164C90.0299 25.4607 90.82 24.808 91.7475 24.2755C92.675 23.7431 93.7228 23.4683 94.8907 23.4683C95.9041 23.4683 96.6771 23.7259 97.2267 24.2584C97.7763 24.7908 98.1542 25.4435 98.3775 26.268C98.5836 27.0753 98.7038 27.9169 98.7038 28.7585V34.5297C98.7038 35.4229 98.8069 36.0069 99.0302 36.2817C99.2363 36.5565 99.6485 36.6939 100.267 36.6939V37.9306H100.284Z" fill="#4378C7"/>
<path d="M117.013 29.7204C117.013 31.2491 116.67 32.6919 115.983 33.9972C115.296 35.3198 114.368 36.3847 113.183 37.1748C112.015 37.9821 110.692 38.3772 109.215 38.3772C108.047 38.3772 106.879 38.1367 105.746 37.6386C104.612 37.1405 103.667 36.6424 102.929 36.1099V20.8403C102.929 20.033 102.877 19.4834 102.757 19.1914C102.637 18.9166 102.414 18.762 102.087 18.762C101.623 18.762 101.177 18.8307 100.765 18.9853L100.387 17.8516L106.072 16.134H107.292V26.3023C108.013 25.3061 108.769 24.5675 109.576 24.121C110.366 23.6744 111.139 23.4511 111.895 23.4511C112.822 23.4511 113.664 23.7087 114.437 24.224C115.21 24.7393 115.828 25.4607 116.292 26.3882C116.773 27.3501 117.013 28.4493 117.013 29.7204ZM109.748 36.8141C110.452 36.8141 111.002 36.5393 111.397 35.9897C111.792 35.44 112.084 34.753 112.238 33.8942C112.41 33.0525 112.479 32.1766 112.479 31.2834C112.479 30.4761 112.393 29.7032 112.238 28.9818C112.084 28.2604 111.809 27.6764 111.431 27.2127C111.053 26.7661 110.555 26.5428 109.902 26.5428C109.542 26.5428 109.112 26.6802 108.631 26.9722C108.133 27.2642 107.704 27.6592 107.309 28.1573V35.2683C107.996 36.2988 108.82 36.8141 109.748 36.8141Z" fill="#4378C7"/>
<path d="M132.883 30.6307C132.883 32.0047 132.608 33.293 132.041 34.4781C131.475 35.6633 130.684 36.608 129.654 37.3294C128.623 38.0507 127.369 38.4114 125.909 38.4114C124.415 38.4114 123.127 38.0679 122.062 37.3637C120.997 36.6595 120.155 35.7663 119.571 34.6327C118.987 33.5162 118.695 32.3139 118.695 31.0429C118.695 29.7375 118.987 28.5008 119.554 27.35C120.121 26.1992 120.928 25.2717 121.993 24.5503C123.041 23.8289 124.312 23.4682 125.755 23.4682C127.163 23.4682 128.4 23.7945 129.482 24.4301C130.547 25.0656 131.389 25.9416 131.99 27.0065C132.591 28.1058 132.883 29.3081 132.883 30.6307ZM128.452 31.8502C128.452 30.7509 128.331 29.6688 128.074 28.621C127.816 27.5733 127.438 26.7145 126.957 26.0274C126.459 25.3404 125.858 24.9969 125.119 24.9969C124.656 24.9969 124.209 25.3404 123.797 26.0103C123.385 26.6801 123.161 27.934 123.161 29.7718C123.161 31.0429 123.333 32.2109 123.677 33.2758C124.02 34.3407 124.45 35.2167 124.965 35.8522C125.497 36.5049 126.047 36.8312 126.614 36.8312C127.215 36.8312 127.661 36.4534 127.971 35.6804C128.297 34.9419 128.452 33.6537 128.452 31.8502Z" fill="#4378C7"/>
<path d="M7.49668 25.375C7.49668 25.375 12.9587 24.6708 12.5293 17.9377C12.5293 17.9377 6.9814 18.4359 7.49668 25.375Z" fill="#F2865B"/>
<path d="M6.07055 26.4915C6.07055 26.4915 8.59545 20.0848 0.969236 16.4778C0.969236 16.495 -1.84765 22.8673 6.07055 26.4915Z" fill="#F2865B"/>
<path d="M7.03125 27.4019C7.03125 27.4019 12.6307 27.4534 13.0944 35.3716C13.0944 35.3716 7.4263 35.5777 7.03125 27.4019Z" fill="#F2865B"/>
<path d="M5.94953 27.2816C5.94953 27.2816 8.16525 33.8086 0.367278 37.0377C0.367278 37.0377 -2.14044 30.5279 5.94953 27.2816Z" fill="#F2865B"/>
<path d="M6.77329 34.1691C6.77329 34.1691 10.6379 38.5834 5.55378 43.6675C5.55378 43.6504 1.46586 39.3563 6.77329 34.1691Z" fill="#F2865B"/>
<path d="M9.881 40.9365C9.881 40.9365 16.0816 43.9424 12.8868 51.7575C12.8868 51.7575 6.4973 48.9578 9.881 40.9365Z" fill="#F2865B"/>
<path d="M16.2905 47.1543C16.2905 47.1543 23.9511 48.0131 23.556 56C23.5732 56 15.7924 55.3989 16.2905 47.1543Z" fill="#F2865B"/>
<path d="M23.7617 49.645C23.7617 49.645 30.1169 48.4427 31.5769 54.128C31.5769 54.128 25.1702 55.5365 23.7617 49.645Z" fill="#F2865B"/>
<path d="M6.92949 19.1571C6.92949 19.1571 12.4087 14.9833 7.73677 7.95825C7.73677 7.95825 2.01711 11.9603 6.92949 19.1571Z" fill="#F2865B"/>
<path d="M11.7018 12.3896C11.7018 12.3896 17.6104 9.40093 14.8794 2.97705C14.8794 2.97705 8.78185 5.79394 11.7018 12.3896Z" fill="#F2865B"/>
<path d="M17.6136 7.52893C17.6136 7.52893 24.381 6.92776 24.2092 0.229064C24.2092 0.229064 17.3387 0.624115 17.6136 7.52893Z" fill="#F2865B"/>
<path d="M25.291 4.36849C25.291 4.36849 31.1824 7.94113 36.0261 1.03632C36.0261 1.03632 30.2206 -2.82832 25.291 4.36849Z" fill="#F2865B"/>
<path d="M35.166 6.3267C35.166 6.3267 39.4085 10.1226 44.3896 5.22743C44.3896 5.22743 40.233 1.22538 35.166 6.3267Z" fill="#F2865B"/>
<path d="M41.1428 9.50415C41.1428 9.50415 40.9882 15.8593 48.7518 16.5464C48.7518 16.5464 49.1641 10.1225 41.1428 9.50415Z" fill="#F2865B"/>
<path d="M11.4609 14.9662C11.4609 14.9662 17.7646 17.7659 21.6807 10.2771C21.6807 10.2943 15.4286 7.20256 11.4609 14.9662Z" fill="#F2865B"/>
<path d="M22.1993 7.27131C22.1993 7.27131 24.6726 12.3383 31.0622 9.7275C31.0622 9.7275 28.7777 4.48877 22.1993 7.27131Z" fill="#F2865B"/>
<path d="M33.6032 7.0307C33.6032 7.0307 32.1088 13.1454 39.4602 15.4642C39.4774 15.4642 41.2294 9.33231 33.6032 7.0307Z" fill="#F2865B"/>
<path d="M31.1815 49.9712C31.1815 49.9712 36.6778 45.8146 42.1914 52.2041C42.1914 52.2213 36.7981 56.6356 31.1815 49.9712Z" fill="#F2865B"/>
<path d="M28.8246 49.0096C28.8246 49.0096 28.6357 42.809 36.2104 42.0876C36.2104 42.0876 36.6398 48.3569 28.8246 49.0096Z" fill="#F2865B"/>
<path d="M16.9608 45.8489C16.9608 45.8489 20.5506 40.6273 27.799 44.9214C27.799 44.9214 24.4153 50.3662 16.9608 45.8489Z" fill="#F2865B"/>
<path d="M10.0059 38.5488C10.0059 38.5488 14.6778 35.9724 18.6283 42.1386C18.6111 42.1386 14.0079 44.9384 10.0059 38.5488Z" fill="#F2865B"/>
</svg>
