<svg width="145" height="26" viewBox="0 0 145 26" fill="none" xmlns="http://www.w3.org/2000/svg">
<path fill-rule="evenodd" clip-rule="evenodd" d="M3.01478 0.0154325C4.67801 0.0154325 6.02719 1.38121 6.02719 3.06491V10.1832C6.02719 12.7882 6.02796 15.3932 6.02186 17.9982C6.02186 19.0661 6.87786 19.9327 7.93282 19.9327C8.98853 19.9327 9.84378 19.0661 9.84378 17.9982C9.84378 17.9241 9.83997 17.8508 9.83158 17.7791V8.00795C9.83158 4.24086 12.3973 1.07874 15.8564 0.216056C16.3069 0.103398 16.7726 0.0300935 17.2506 0H18.2674C19.9352 0.107256 21.4635 0.736133 22.6938 1.72845C24.0437 0.650482 25.7481 0.00617283 27.6004 0.00617283C31.978 0.00617283 35.5278 3.59964 35.5278 8.0311C35.5278 12.7056 35.5346 17.3809 35.5392 22.0554L35.5339 22.9505C35.5339 24.6311 34.1908 25.9946 32.5314 26H32.5116C30.8529 25.9946 29.5091 24.6311 29.5091 22.9505C29.5098 17.9851 29.5152 13.0197 29.5152 8.05425C29.5152 6.98555 28.6591 6.11978 27.6042 6.11978C26.5569 6.11978 25.7054 6.97397 25.6932 8.0311C25.6666 10.6261 25.6978 13.2272 25.6978 15.823V22.9575C25.6978 24.5709 24.4599 25.892 22.8927 26H22.4788C20.9116 25.892 19.6737 24.5709 19.6737 22.9575V8.02107C19.6684 6.95777 18.8147 6.09663 17.7628 6.09663C16.7536 6.09663 15.9273 6.88832 15.8564 7.89221C15.8503 7.9848 15.8503 8.07817 15.8564 8.17077V17.9982C15.8442 22.4104 12.3112 25.9869 7.95187 26H7.9069C3.54531 25.9869 0.0107562 22.4073 0.00237144 17.9913C-0.0029643 13.0127 0.00237144 8.03419 0.00237144 3.05565C0.00770719 1.37581 1.3546 0.0154325 3.01478 0.0154325Z" fill="#D50000"/>
<path d="M45.6924 8.24895V15.4171C45.6924 16.3177 45.8889 16.9899 46.2821 17.4335C46.6752 17.8771 47.2906 18.0989 48.1284 18.0989C49.2369 18.0989 50.0457 17.783 50.5548 17.1512C51.0704 16.5194 51.3281 15.4877 51.3281 14.0561V8.24895H52.9328V19.2986H51.6085L51.3765 17.8166H51.2895C50.9608 18.361 50.5032 18.7777 49.9168 19.0667C49.3368 19.3557 48.673 19.5002 47.9254 19.5002C46.6365 19.5002 45.6698 19.181 45.0254 18.5424C44.3874 17.9039 44.0684 16.8823 44.0684 15.4776V8.24895H45.6924Z" fill="#232323"/>
<path d="M61.1786 8.04731C61.6491 8.04731 62.0712 8.08764 62.445 8.16829L62.2227 9.72089C61.7844 9.62007 61.3978 9.56966 61.0627 9.56966C60.2055 9.56966 59.4708 9.93261 58.8586 10.6585C58.2528 11.3844 57.9499 12.2884 57.9499 13.3705V19.2986H56.3452V8.24895H57.6696L57.8533 10.2956H57.9306C58.3237 9.57638 58.7974 9.02188 59.3516 8.63206C59.9058 8.24223 60.5149 8.04731 61.1786 8.04731Z" fill="#232323"/>
<path d="M70.9421 19.2986L70.6231 17.7258H70.5458C70.0173 18.4181 69.4889 18.8886 68.9605 19.1373C68.4384 19.3792 67.7843 19.5002 66.9981 19.5002C65.9476 19.5002 65.1227 19.2179 64.5234 18.6533C63.9305 18.0888 63.634 17.2856 63.634 16.2438C63.634 14.0124 65.3451 12.8429 68.7671 12.7353L70.5651 12.6749V11.9893C70.5651 11.1223 70.3847 10.4837 70.0238 10.0738C69.6693 9.65704 69.099 9.44868 68.3128 9.44868C67.4299 9.44868 66.431 9.73097 65.316 10.2956L64.8231 9.01516C65.3451 8.71943 65.9154 8.48755 66.5341 8.31952C67.1592 8.15149 67.7843 8.06748 68.4094 8.06748C69.6726 8.06748 70.607 8.35985 71.2128 8.94459C71.8251 9.52933 72.1312 10.4669 72.1312 11.7574V19.2986H70.9421ZM67.3171 18.119C68.316 18.119 69.099 17.8334 69.6661 17.2621C70.2397 16.6908 70.5265 15.8909 70.5265 14.8626V13.8645L68.9218 13.9351C67.6458 13.9821 66.7242 14.1905 66.1571 14.5601C65.5964 14.9231 65.316 15.491 65.316 16.264C65.316 16.8689 65.4901 17.3293 65.8381 17.6452C66.1925 17.9611 66.6855 18.119 67.3171 18.119Z" fill="#232323"/>
<path d="M77.0516 19.2986H75.4469V3.61133H77.0516V19.2986Z" fill="#232323"/>
<path d="M93.9589 19.2986V12.1103C93.9589 11.2298 93.7784 10.5711 93.4175 10.1342C93.0566 9.69064 92.496 9.46884 91.7355 9.46884C90.7366 9.46884 89.9987 9.76794 89.5218 10.3661C89.0449 10.9643 88.8064 11.8851 88.8064 13.1285V19.2986H87.2018V12.1103C87.2018 11.2298 87.0213 10.5711 86.6604 10.1342C86.2995 9.69064 85.7356 9.46884 84.9687 9.46884C83.9634 9.46884 83.2255 9.78474 82.755 10.4165C82.291 11.0416 82.059 12.0699 82.059 13.5016V19.2986H80.4543V8.24895H81.7593L82.0203 9.76122H82.0977C82.4006 9.22352 82.8259 8.80344 83.3737 8.50099C83.9279 8.19854 84.5466 8.04731 85.2297 8.04731C86.886 8.04731 87.9687 8.67238 88.4778 9.92252H88.5551C88.8709 9.3445 89.3285 8.88746 89.9278 8.5514C90.5271 8.21534 91.2103 8.04731 91.9772 8.04731C93.1759 8.04731 94.0717 8.36993 94.6646 9.01516C95.2639 9.65368 95.5636 10.6787 95.5636 12.0901V19.2986H93.9589Z" fill="#232323"/>
<path d="M103.355 19.5002C101.789 19.5002 100.552 19.0028 99.643 18.0081C98.7407 17.0134 98.2896 15.6322 98.2896 13.8645C98.2896 12.0834 98.7085 10.6686 99.5463 9.62007C100.391 8.57157 101.522 8.04731 102.939 8.04731C104.267 8.04731 105.317 8.50435 106.091 9.41844C106.864 10.3258 107.251 11.5255 107.251 13.0176V14.0762H99.9523C99.9845 15.3734 100.297 16.3581 100.89 17.0302C101.489 17.7023 102.33 18.0384 103.413 18.0384C104.554 18.0384 105.682 17.7897 106.796 17.2923V18.7844C106.229 19.0398 105.691 19.2213 105.182 19.3288C104.679 19.4431 104.07 19.5002 103.355 19.5002ZM102.92 9.44868C102.069 9.44868 101.389 9.73769 100.88 10.3157C100.378 10.8937 100.081 11.6936 99.991 12.7152H105.53C105.53 11.66 105.305 10.8534 104.853 10.2956C104.402 9.73097 103.758 9.44868 102.92 9.44868Z" fill="#232323"/>
<path d="M117.208 17.8166H117.121C116.379 18.939 115.271 19.5002 113.795 19.5002C112.41 19.5002 111.33 19.0062 110.557 18.0182C109.79 17.0302 109.406 15.6255 109.406 13.804C109.406 11.9826 109.793 10.5678 110.566 9.55958C111.34 8.5514 112.416 8.04731 113.795 8.04731C115.232 8.04731 116.334 8.59173 117.101 9.68056H117.227L117.159 8.8841L117.121 8.1078V3.61133H118.725V19.2986H117.42L117.208 17.8166ZM113.998 18.0989C115.094 18.0989 115.886 17.7897 116.376 17.1713C116.872 16.5463 117.121 15.5414 117.121 14.1569V13.804C117.121 12.238 116.869 11.1223 116.367 10.4569C115.87 9.78474 115.074 9.44868 113.979 9.44868C113.038 9.44868 112.316 9.83179 111.814 10.598C111.317 11.3575 111.069 12.4329 111.069 13.8242C111.069 15.2356 111.317 16.3009 111.814 17.0201C112.31 17.7393 113.038 18.0989 113.998 18.0989Z" fill="#232323"/>
<path d="M123.742 19.2986H122.138V8.24895H123.742V19.2986ZM122.002 5.25466C122.002 4.87155 122.093 4.59262 122.273 4.41787C122.453 4.2364 122.679 4.14566 122.95 4.14566C123.207 4.14566 123.43 4.2364 123.617 4.41787C123.804 4.59934 123.897 4.87827 123.897 5.25466C123.897 5.63105 123.804 5.91334 123.617 6.10153C123.43 6.283 123.207 6.37374 122.95 6.37374C122.679 6.37374 122.453 6.283 122.273 6.10153C122.093 5.91334 122.002 5.63105 122.002 5.25466Z" fill="#232323"/>
<path d="M133.661 19.2986L133.342 17.7258H133.264C132.736 18.4181 132.207 18.8886 131.679 19.1373C131.157 19.3792 130.503 19.5002 129.716 19.5002C128.666 19.5002 127.841 19.2179 127.242 18.6533C126.649 18.0888 126.352 17.2856 126.352 16.2438C126.352 14.0124 128.063 12.8429 131.485 12.7353L133.284 12.6749V11.9893C133.284 11.1223 133.103 10.4837 132.742 10.0738C132.388 9.65704 131.817 9.44868 131.031 9.44868C130.148 9.44868 129.149 9.73097 128.034 10.2956L127.541 9.01516C128.063 8.71943 128.634 8.48755 129.252 8.31952C129.878 8.15149 130.503 8.06748 131.128 8.06748C132.391 8.06748 133.325 8.35985 133.931 8.94459C134.543 9.52933 134.85 10.4669 134.85 11.7574V19.2986H133.661ZM130.035 18.119C131.034 18.119 131.817 17.8334 132.385 17.2621C132.958 16.6908 133.245 15.8909 133.245 14.8626V13.8645L131.64 13.9351C130.364 13.9821 129.443 14.1905 128.875 14.5601C128.315 14.9231 128.034 15.491 128.034 16.264C128.034 16.8689 128.208 17.3293 128.556 17.6452C128.911 17.9611 129.404 18.119 130.035 18.119Z" fill="#232323"/>
<path d="M145 16.2841C145 17.3125 144.632 18.1056 143.898 18.6634C143.163 19.2213 142.132 19.5002 140.804 19.5002C139.399 19.5002 138.304 19.2683 137.518 18.8046V17.252C138.027 17.5208 138.571 17.7325 139.151 17.8871C139.738 18.0417 140.302 18.119 140.843 18.119C141.681 18.119 142.325 17.9812 142.776 17.7057C143.227 17.4234 143.453 16.9966 143.453 16.4253C143.453 15.9951 143.273 15.6288 142.912 15.3264C142.557 15.0172 141.861 14.6542 140.824 14.2375C139.838 13.8544 139.135 13.5217 138.716 13.2394C138.304 12.9504 137.994 12.6244 137.788 12.2615C137.588 11.8986 137.489 11.465 137.489 10.9609C137.489 10.0603 137.84 9.35122 138.542 8.83369C139.245 8.30944 140.208 8.04731 141.433 8.04731C142.573 8.04731 143.688 8.28927 144.777 8.7732L144.207 10.1342C143.144 9.6772 142.18 9.44868 141.317 9.44868C140.556 9.44868 139.983 9.57302 139.596 9.82171C139.209 10.0704 139.016 10.4132 139.016 10.85C139.016 11.1458 139.087 11.3978 139.229 11.6062C139.377 11.8145 139.612 12.0128 139.934 12.201C140.257 12.3892 140.875 12.6614 141.79 13.0176C143.047 13.4948 143.894 13.9754 144.333 14.4593C144.777 14.9433 145 15.5515 145 16.2841Z" fill="#232323"/>
</svg>
