<svg width="40" height="40" viewBox="0 0 40 40" fill="none" xmlns="http://www.w3.org/2000/svg">
<g id="arrow / long_right">
<path id="image 260 (Traced)" fill-rule="evenodd" clip-rule="evenodd" d="M16.6213 9.71478L13.25 12.9293L13.9872 13.6325C14.3927 14.0193 14.7317 14.3341 14.7406 14.3321C14.7495 14.3301 15.6965 13.4354 16.845 12.3438L18.9333 10.3592L18.9369 21.9295L18.9405 33.4998H19.9999H21.0592L21.0628 21.9295L21.0664 10.3592L23.1547 12.3438C24.3033 13.4354 25.2503 14.3301 25.2591 14.3321C25.268 14.3341 25.607 14.0193 26.0125 13.6325L26.7498 12.9293L23.3784 9.71478C21.5242 7.94678 20.0038 6.50024 19.9999 6.50024C19.9959 6.50024 18.4756 7.94678 16.6213 9.71478Z" fill="#0351C0"/>
</g>
</svg>
