<svg width="30" height="30" viewBox="0 0 30 30" fill="none" xmlns="http://www.w3.org/2000/svg">
<g id="Frame 1948759974">
<g id="Group">
<path id="Vector" d="M25.0003 6.57895V20.2632C25.0003 21.1368 24.295 21.8421 23.4214 21.8421H22.895V9.73684C22.895 8.28421 21.7161 7.10526 20.2635 7.10526H8.1582V6.57895C8.1582 5.70526 8.86347 5 9.73715 5H23.4214C24.295 5 25.0003 5.70526 25.0003 6.57895Z" fill="#7588A8"/>
<path id="Vector_2" d="M21.8421 9.73691V23.4211C21.8421 24.2948 21.1368 25.0001 20.2632 25.0001H6.57895C5.70526 25.0001 5 24.2948 5 23.4211V9.73691C5 8.86322 5.70526 8.15796 6.57895 8.15796H20.2632C21.1368 8.15796 21.8421 8.86322 21.8421 9.73691Z" fill="#7588A8"/>
</g>
</g>
</svg>
