<svg width="25" height="25" viewBox="0 0 25 25" fill="none" xmlns="http://www.w3.org/2000/svg">
<path d="M18.7513 22.9168H6.2513C5.10071 22.9168 4.16797 21.9841 4.16797 20.8335V4.16683C4.16797 3.01624 5.10071 2.0835 6.2513 2.0835H13.543C13.5543 2.08399 13.5655 2.08609 13.5763 2.08975C13.5865 2.09289 13.597 2.09498 13.6076 2.096C13.6994 2.10188 13.7901 2.11974 13.8773 2.14912L13.9065 2.1585C13.9301 2.1665 13.9531 2.17625 13.9753 2.18766C14.0887 2.2381 14.1922 2.30869 14.2805 2.396L20.5305 8.646C20.6178 8.73432 20.6884 8.83772 20.7388 8.9512C20.7492 8.97412 20.7565 8.99808 20.7648 9.02204L20.7742 9.04912C20.8033 9.13599 20.8205 9.22639 20.8253 9.31787C20.8269 9.32744 20.8293 9.33685 20.8326 9.346C20.8344 9.3556 20.8351 9.36539 20.8348 9.37516V20.8335C20.8348 21.9841 19.9019 22.9168 18.7513 22.9168ZM6.2513 4.16683V20.8335H18.7513V10.4168H13.543C12.9677 10.4168 12.5013 9.95046 12.5013 9.37516V4.16683H6.2513ZM14.5846 5.63975V8.3335H17.2784L14.5846 5.63975Z" fill="#0351C0"/>
</svg>
