<svg width="30" height="30" viewBox="0 0 30 30" fill="none" xmlns="http://www.w3.org/2000/svg">
<circle cx="15" cy="15" r="15" fill="#F2865B"/>
<path d="M15.0008 12.0657C13.3816 12.0657 12.0664 13.3809 12.0664 15.0001C12.0664 16.6193 13.3816 17.9377 15.0008 17.9377C16.62 17.9377 17.9384 16.6193 17.9384 15.0001C17.9384 13.3809 16.62 12.0657 15.0008 12.0657Z" fill="white"/>
<path d="M19.4288 7H10.5712C8.6032 7 7 8.6032 7 10.5712V19.4288C7 21.4 8.6032 23 10.5712 23H19.4288C21.4 23 23 21.4 23 19.4288V10.5712C23 8.6032 21.4 7 19.4288 7ZM15 20.184C12.1424 20.184 9.816 17.8576 9.816 15C9.816 12.1424 12.1424 9.8192 15 9.8192C17.8576 9.8192 20.184 12.1424 20.184 15C20.184 17.8576 17.8576 20.184 15 20.184ZM20.2928 10.76C19.688 10.76 19.1952 10.2704 19.1952 9.6656C19.1952 9.0608 19.688 8.568 20.2928 8.568C20.8976 8.568 21.3904 9.0608 21.3904 9.6656C21.3904 10.2704 20.8976 10.76 20.2928 10.76Z" fill="white"/>
</svg>
