<svg width="24" height="24" viewBox="0 0 24 24" fill="none" xmlns="http://www.w3.org/2000/svg">
<path d="M19.4663 21L13.2718 14.8048C10.5161 16.7638 6.71895 16.2846 4.53644 13.7024C2.35393 11.1203 2.51418 7.29658 4.9051 4.90607C7.29539 2.51452 11.1197 2.35358 13.7025 4.53585C16.2853 6.71811 16.7648 10.5154 14.8055 13.2711L21 19.4664L19.4674 20.9989L19.4663 21ZM9.50302 5.16835C7.44762 5.16788 5.67434 6.6106 5.2568 8.62303C4.83926 10.6355 5.89223 12.6645 7.77818 13.4817C9.66414 14.2988 11.8647 13.6796 13.0477 11.9988C14.2306 10.318 14.0707 8.03763 12.6648 6.53833L13.3205 7.18864L12.5813 6.45163L12.5683 6.43862C11.7573 5.62268 10.6535 5.16525 9.50302 5.16835Z" fill="#151516"/>
</svg>
