<svg width="30" height="30" viewBox="0 0 30 30" fill="none" xmlns="http://www.w3.org/2000/svg">
<g id="Frame 1948759974">
<path id="Vector" d="M16.0718 22.9756C8.17495 22.9756 3.54541 17.762 3.03993 9.02179C3.00757 8.46229 3.46061 8 4.02105 8H6.12689C6.67152 8 7.11336 8.43879 7.14778 8.98233C7.47229 14.1076 9.49787 16.8087 11.4826 17.901C12.0525 18.2147 12.6689 17.7433 12.6689 17.0927V9C12.6689 8.44772 13.1166 8 13.6689 8H15.5366C16.0889 8 16.5366 8.44772 16.5366 9V12.8079C16.5366 13.4026 17.0595 13.8665 17.6118 13.6461C19.4266 12.9221 21.1546 10.9517 21.996 8.7181C22.1537 8.29936 22.5417 8 22.9892 8H24.9088C25.5305 8 26.0036 8.56378 25.821 9.15806C25.1436 11.3624 23.7501 13.1451 22.3849 14.3407C21.7771 14.873 21.8262 15.9708 22.4808 16.4443C23.9652 17.5182 25.6045 19.2405 26.5857 21.731C26.8277 22.3452 26.3484 22.9756 25.6883 22.9756H23.4717C23.0372 22.9756 22.6577 22.6925 22.4914 22.2911C21.5913 20.1191 19.8632 18.4186 17.6223 17.8209C17.0508 17.6685 16.5366 18.137 16.5366 18.7284V22.5108C16.5366 22.7675 16.3285 22.9756 16.0718 22.9756Z" fill="white"/>
</g>
</svg>
