<svg width="30" height="30" viewBox="0 0 30 30" fill="none" xmlns="http://www.w3.org/2000/svg">
<path fill-rule="evenodd" clip-rule="evenodd" d="M2.57478 14.1945C8.74753 11.5216 12.8568 9.74557 14.9203 8.88392C20.7932 6.43962 22.0278 6.01758 22.8214 6C22.9978 6 23.3858 6.03517 23.6503 6.24619C23.8619 6.42204 23.9148 6.65064 23.9501 6.82649C23.9854 7.00234 24.0207 7.37162 23.9854 7.65298C23.6679 10.9941 22.2923 19.1007 21.5868 22.8287C21.287 24.4113 20.705 24.9389 20.1407 24.9916C18.9061 25.0972 17.9714 24.1827 16.7897 23.409C14.9203 22.1957 13.8797 21.4395 12.0632 20.2437C9.96444 18.8721 11.3224 18.116 12.5217 16.885C12.8392 16.5685 18.2536 11.6447 18.3594 11.2051C18.377 11.1524 18.377 10.9413 18.2536 10.8358C18.1301 10.7303 17.9537 10.7655 17.8126 10.8007C17.6186 10.8358 14.6557 12.8053 8.88862 16.6916C8.04207 17.2719 7.2837 17.5533 6.59588 17.5357C5.83752 17.5181 4.39133 17.1136 3.29787 16.7619C1.97514 16.3399 0.916957 16.1113 1.00514 15.3727C1.05805 14.9859 1.58714 14.599 2.57478 14.1945Z" fill="#151516"/>
</svg>
