<svg width="30" height="30" viewBox="0 0 30 30" fill="none" xmlns="http://www.w3.org/2000/svg">
<circle cx="15" cy="15" r="15" fill="#F2865B"/>
<path d="M7.35253 14.8994L11.0326 16.2085L19.7704 10.613C19.8973 10.5322 20.027 10.7123 19.9179 10.8177L13.3029 17.1955L13.0572 20.766C13.0532 20.8259 13.0666 20.8855 13.0957 20.9372C13.1248 20.9888 13.1682 21.0299 13.2202 21.0551C13.2721 21.0803 13.3302 21.0884 13.3866 21.0782C13.443 21.0681 13.4951 21.0402 13.5361 20.9983L15.5727 18.9003L19.2961 21.8525C19.6973 22.1709 20.2785 21.9464 20.3865 21.4317L22.9791 9.10096C23.1271 8.39763 22.4688 7.80384 21.827 8.06123L7.33425 13.8746C6.87938 14.0572 6.89195 14.7354 7.35253 14.8994Z" fill="white"/>
</svg>
