<svg width="30" height="30" viewBox="0 0 30 30" fill="none" xmlns="http://www.w3.org/2000/svg">
<circle cx="15" cy="15" r="15" fill="#F2865B"/>
<path d="M16.6005 7H13.4006C10.3207 7 7.80078 9.51991 7.80078 12.5998V14.9997C7.80078 17.1596 9.06074 19.1396 11.0007 20.0595V22.7394C11.0007 22.9794 11.3007 23.0994 11.4607 22.9194L13.7806 20.5995H16.6005C19.6804 20.5995 22.2003 18.0796 22.2003 14.9997V12.5998C22.2003 9.51991 19.6804 7 16.6005 7ZM18.7004 17.4996L17.8804 18.2996C17.0205 19.1396 14.8005 18.1796 12.8406 16.1797C10.8807 14.1797 10.0207 11.9398 10.8407 11.0999L11.6406 10.2999C11.9406 9.99989 12.4406 10.0199 12.7806 10.3199L13.9406 11.5198C14.3605 11.9398 14.1806 12.6598 13.6406 12.8198C13.2606 12.9398 13.0006 13.3598 13.1206 13.7398C13.3206 14.6197 14.4405 15.7397 15.2805 15.9597C15.6605 16.0397 16.0805 15.8397 16.2205 15.4597C16.4005 14.9197 17.1204 14.7597 17.5204 15.1797L18.6804 16.3797C19.0004 16.6597 19.0004 17.1596 18.7004 17.4996ZM15.7205 10.7999C15.6405 10.7999 15.5605 10.7999 15.4805 10.8199C15.3405 10.8399 15.2005 10.7199 15.1805 10.5799C15.1605 10.4399 15.2805 10.2999 15.4205 10.2799C15.5205 10.2599 15.6205 10.2599 15.7205 10.2599C17.1804 10.2599 18.3804 11.4598 18.3804 12.9198C18.3804 13.0198 18.3804 13.1198 18.3604 13.2198C18.3404 13.3598 18.2004 13.4798 18.0604 13.4598C17.9204 13.4398 17.8004 13.2998 17.8204 13.1598C17.8204 13.0798 17.8404 12.9998 17.8404 12.9198C17.8604 11.7598 16.9005 10.7999 15.7205 10.7999ZM17.3204 12.9398C17.3204 13.0798 17.2004 13.1998 17.0605 13.1998C16.9205 13.1998 16.8005 13.0798 16.8005 12.9398C16.8005 12.3598 16.3205 11.8798 15.7405 11.8798C15.6005 11.8798 15.4805 11.7598 15.4805 11.6198C15.4805 11.4798 15.6005 11.3598 15.7405 11.3598C16.6005 11.3398 17.3204 12.0598 17.3204 12.9398ZM19.3604 13.7998C19.3204 13.9398 19.1804 14.0397 19.0204 13.9998C18.8804 13.9598 18.8004 13.8198 18.8404 13.6798C18.9004 13.4398 18.9204 13.1998 18.9204 12.9398C18.9204 11.1799 17.4804 9.7399 15.7205 9.7399H15.4805C15.3405 9.7399 15.2005 9.63991 15.2005 9.49991C15.2005 9.35992 15.3005 9.21992 15.4405 9.21992C15.5405 9.21992 15.6405 9.19992 15.7205 9.19992C17.7804 9.19992 19.4604 10.8799 19.4604 12.9398C19.4604 13.2198 19.4204 13.5198 19.3604 13.7998Z" fill="white"/>
</svg>
