<svg width="30" height="30" viewBox="0 0 30 30" fill="none" xmlns="http://www.w3.org/2000/svg">
<circle cx="15" cy="15" r="15" fill="#F2865B"/>
<path d="M20.2776 15.771C20.019 15.4035 20.093 15.24 20.2776 14.9115C20.281 14.9078 22.4165 11.5883 22.6365 10.4625L22.6378 10.4618C22.7472 10.0515 22.6378 9.75 22.1091 9.75H20.3596C19.9143 9.75 19.7089 10.0087 19.5989 10.2983C19.5989 10.2983 18.7082 12.6968 17.4481 14.2515C17.0414 14.7008 16.8534 14.8448 16.6314 14.8448C16.522 14.8448 16.352 14.7008 16.352 14.2905V10.4618C16.352 9.96975 16.2273 9.75 15.8587 9.75H13.1078C12.8284 9.75 12.6624 9.9795 12.6624 10.1933C12.6624 10.6598 13.2925 10.767 13.3578 12.0795V14.9273C13.3578 15.5513 13.2571 15.666 13.0338 15.666C12.4391 15.666 10.9956 13.2578 10.1402 10.5015C9.96755 9.96675 9.79887 9.75075 9.35017 9.75075H7.60004C7.10067 9.75075 7 10.0095 7 10.299C7 10.8105 7.59471 13.3538 9.76554 16.7138C11.2123 19.0073 13.2498 20.25 15.1033 20.25C16.2173 20.25 16.3534 19.974 16.3534 19.4993C16.3534 17.3078 16.2527 17.1008 16.8107 17.1008C17.0694 17.1008 17.5148 17.2448 18.5548 18.351C19.7436 19.6628 19.939 20.25 20.6043 20.25H22.3538C22.8525 20.25 23.1052 19.974 22.9598 19.4295C22.6271 18.2843 20.379 15.9285 20.2776 15.771Z" fill="white"/>
</svg>
