<svg width="30" height="30" viewBox="0 0 30 30" fill="none" xmlns="http://www.w3.org/2000/svg">
<circle cx="15" cy="15" r="15" fill="#F2865B"/>
<path d="M15.002 7H14.998C10.587 7 7 10.588 7 15C7 16.75 7.564 18.372 8.523 19.689L7.526 22.661L10.601 21.678C11.866 22.516 13.375 23 15.002 23C19.413 23 23 19.411 23 15C23 10.589 19.413 7 15.002 7ZM19.657 18.297C19.464 18.842 18.698 19.294 18.087 19.426C17.669 19.515 17.123 19.586 15.285 18.824C12.934 17.85 11.42 15.461 11.302 15.306C11.189 15.151 10.352 14.041 10.352 12.893C10.352 11.745 10.935 11.186 11.17 10.946C11.363 10.749 11.682 10.659 11.988 10.659C12.087 10.659 12.176 10.664 12.256 10.668C12.491 10.678 12.609 10.692 12.764 11.063C12.957 11.528 13.427 12.676 13.483 12.794C13.54 12.912 13.597 13.072 13.517 13.227C13.442 13.387 13.376 13.458 13.258 13.594C13.14 13.73 13.028 13.834 12.91 13.98C12.802 14.107 12.68 14.243 12.816 14.478C12.952 14.708 13.422 15.475 14.114 16.091C15.007 16.886 15.731 17.14 15.99 17.248C16.183 17.328 16.413 17.309 16.554 17.159C16.733 16.966 16.954 16.646 17.179 16.331C17.339 16.105 17.541 16.077 17.753 16.157C17.969 16.232 19.112 16.797 19.347 16.914C19.582 17.032 19.737 17.088 19.794 17.187C19.85 17.286 19.85 17.751 19.657 18.297Z" fill="white"/>
</svg>
